<svg width="128" height="128" viewBox="0 0 128 128" fill="none" xmlns="http://www.w3.org/2000/svg">
<rect width="128" height="128" fill="white" fill-opacity="0.01"/>
<path d="M36.2161 73.1622L93.3859 15.9924L108 14.5L106.252 28.858L49.0817 86.0278L36.2161 73.1622Z" fill="white"/>
<path d="M29.071 66L56.0075 92.9365L53.8317 95.1123C52.2696 96.6744 49.737 96.6744 48.1749 95.1123L26.8952 73.8327C25.3331 72.2706 25.3331 69.7379 26.8952 68.1758L29.071 66Z" fill="white"/>
<path d="M19.4142 96.9855C18.6332 96.2045 18.6332 94.9381 19.4142 94.1571L33.5713 80L41.571 87.9998L27.414 102.157C26.6329 102.938 25.3666 102.938 24.5855 102.157L21.9999 99.5712L19.4142 96.9855Z" fill="white"/>
<circle cx="18" cy="104" r="8" fill="white"/>
<path d="M75.3447 85.9059L18.1749 28.7361L16.6825 14.1221L31.0406 15.8704L88.2104 73.0402L75.3447 85.9059Z" fill="white"/>
<path d="M68.1826 93.0509L95.1191 66.1144L97.2949 68.2902C98.857 69.8523 98.857 72.385 97.2949 73.9471L76.0153 95.2267C74.4532 96.7888 71.9205 96.7888 70.3584 95.2267L68.1826 93.0509Z" fill="white"/>
<path d="M99.1681 102.708C98.3871 103.489 97.1207 103.489 96.3397 102.708L82.1826 88.5507L90.1824 80.5509L104.339 94.708C105.12 95.489 105.12 96.7554 104.339 97.5364L101.754 100.122L99.1681 102.708Z" fill="white"/>
<circle cx="106.183" cy="104.122" r="8" transform="rotate(-90 106.183 104.122)" fill="white"/>
</svg>
