<svg width="128" height="128" viewBox="0 0 128 128" fill="none" xmlns="http://www.w3.org/2000/svg">
<circle cx="51.5" cy="48.5" r="25" stroke="#BA0000" stroke-width="5"/>
<circle cx="51.5" cy="48.5" r="19" stroke="#BA0000"/>
<circle cx="92.5" cy="66.5" r="19" stroke="#BA0000" stroke-width="5"/>
<path d="M107.5 66.5C107.5 74.2161 101.024 80.5 93 80.5C84.9758 80.5 78.5 74.2161 78.5 66.5C78.5 58.7839 84.9758 52.5 93 52.5C101.024 52.5 107.5 58.7839 107.5 66.5Z" stroke="#BA0000"/>
<path d="M76.5 91C76.5 100.725 68.8296 108.5 59.5 108.5C50.1704 108.5 42.5 100.725 42.5 91C42.5 81.275 50.1704 73.5 59.5 73.5C68.8296 73.5 76.5 81.275 76.5 91Z" stroke="#BA0000" stroke-width="5"/>
<path d="M70.5 91C70.5 97.3715 65.5553 102.5 59.5 102.5C53.4447 102.5 48.5 97.3715 48.5 91C48.5 84.6285 53.4447 79.5 59.5 79.5C65.5553 79.5 70.5 84.6285 70.5 91Z" stroke="#BA0000"/>
</svg>
